<?xml version="1.0" encoding="UTF-8"?>
<svg id="Layer_2" data-name="Layer 2" xmlns="http://www.w3.org/2000/svg" viewBox="0 0 496.35 444.38">
  <defs>
    <style>
      .cls-1 {
        fill: #f9eee7;
        stroke-width: 0px;
      }
    </style>
  </defs>
  <g id="Layer_1-2" data-name="Layer 1">
    <g>
      <path class="cls-1" d="M0,101.58h394.78C450.88,101.58,496.35,56.1,496.35,0h0s-394.78,0-394.78,0C45.48,0,0,45.48,0,101.58h0Z"/>
      <path class="cls-1" d="M161.83,125.5h156.65c-80.41,53.59-133.39,145.12-133.39,249.01,0,24.06,2.84,47.46,8.21,69.87-64.15-28.98-108.79-93.53-108.79-168.51,0-61.98,30.51-116.83,77.32-150.37Z"/>
      <path class="cls-1" d="M302.78,294.87c-2.04-1.89-4.14-4.21-6.29-6.95-2.16-2.75-4.31-5.63-6.47-8.64-2.16-3.01-4.16-6.05-6.02-9.11s-3.45-5.87-4.79-8.42c-1.34-2.55-2.38-4.63-3.11-6.26-.74-1.62-.99-2.62-.74-2.97,1.04-1.56,2.99-3.3,5.84-5.21,2.85-1.91,6.19-3.85,10.02-5.81,3.83-1.96,7.96-3.84,12.39-5.65,4.43-1.81,8.68-3.35,12.75-4.63,4.07-1.27,7.76-2.19,11.09-2.74,3.32-.55,5.93-.55,7.81.02.6.4,1.67,1.6,3.21,3.58,1.54,1.99,3.24,4.43,5.12,7.34,1.87,2.91,3.87,6.03,5.99,9.36,2.11,3.33,4,6.55,5.66,9.66,1.65,3.11,3.06,5.87,4.22,8.3,1.15,2.42,1.79,4.2,1.91,5.32-3.77.43-8.21,1.37-13.34,2.79-5.13,1.43-10.43,3.18-15.9,5.25-5.47,2.07-10.8,4.37-15.97,6.9-5.17,2.53-9.62,5.15-13.35,7.87ZM331.04,343c-4.93.35-10,1.17-15.21,2.46-5.21,1.29-10.34,2.98-15.39,5.07-5.05,2.09-9.99,4.47-14.83,7.15-4.83,2.67-9.29,5.51-13.38,8.5-5.11-7.42-9.33-13.77-12.67-19.04-3.33-5.28-5.97-9.65-7.9-13.11-1.94-3.47-3.24-6.12-3.92-7.97-.68-1.85-.9-2.95-.65-3.31.72-1.08,2.25-2.45,4.57-4.1,2.33-1.66,5.18-3.4,8.57-5.21,3.39-1.82,7.17-3.63,11.34-5.44,4.17-1.81,8.32-3.34,12.45-4.57,4.13-1.24,8.14-2.11,12.05-2.62,3.91-.51,7.38-.45,10.42.2.84.56,2.44,2.51,4.82,5.84,2.38,3.33,4.88,7.18,7.52,11.55,2.63,4.37,5.13,8.82,7.48,13.35,2.35,4.53,3.93,8.28,4.72,11.25Z"/>
    </g>
  </g>
</svg>